<?xml version="1.0" standalone="no"?>
<!DOCTYPE svg PUBLIC "-//W3C//DTD SVG 20010904//EN"
 "http://www.w3.org/TR/2001/REC-SVG-20010904/DTD/svg10.dtd">
<svg version="1.0" xmlns="http://www.w3.org/2000/svg"
 width="512.000000pt" height="512.000000pt" viewBox="0 0 512.000000 512.000000"
 preserveAspectRatio="xMidYMid meet">

<g transform="translate(0.000000,512.000000) scale(0.100000,-0.100000)"
fill="#000000" stroke="none">
<path d="M425 5095 c-38 -37 -32 -65 38 -157 476 -627 694 -915 701 -925 4 -8
-10 -34 -38 -69 -25 -30 -54 -69 -63 -85 -10 -16 -21 -29 -25 -29 -4 0 -141
144 -305 320 -176 190 -307 323 -321 327 -31 8 -70 -11 -83 -41 -11 -23 38
-309 152 -891 45 -227 114 -355 261 -481 42 -36 157 -103 215 -125 5 -2 13
-16 17 -31 l6 -28 -248 0 c-148 0 -261 -4 -279 -10 -29 -10 -53 -45 -53 -75 0
-33 63 -74 380 -246 184 -100 337 -183 339 -185 2 -1 14 -42 28 -91 45 -161
91 -230 215 -325 94 -71 166 -164 205 -263 l27 -70 7 -385 c6 -373 7 -388 33
-485 49 -189 136 -338 276 -475 190 -187 441 -282 705 -267 431 25 779 323
882 757 12 50 17 158 22 460 l7 395 27 69 c15 37 27 78 27 90 0 28 -39 66 -69
66 -51 0 -72 -25 -112 -140 -22 -62 -23 -84 -30 -465 -6 -366 -8 -407 -28
-480 -81 -299 -318 -525 -618 -587 -436 -90 -852 193 -954 651 -6 25 -14 219
-18 431 -7 378 -8 386 -33 457 -54 151 -139 267 -265 361 -69 51 -97 82 -125
137 -19 36 -191 665 -184 672 2 3 70 -17 151 -44 l147 -48 62 -151 c83 -202
109 -236 222 -285 41 -19 73 -23 200 -27 l152 -5 4 -54 c3 -37 11 -61 26 -75
26 -26 75 -28 102 -3 19 17 20 30 20 286 0 258 -1 271 -25 347 -33 105 -106
208 -191 271 -36 26 -120 72 -187 101 -175 77 -318 146 -347 169 l-24 19 78
23 c51 15 83 30 92 44 7 11 23 66 34 120 11 55 23 107 25 115 4 13 19 14 100
9 l95 -7 175 -168 c232 -223 303 -312 361 -454 46 -115 56 -169 63 -352 7
-201 13 -218 81 -218 68 0 74 16 81 223 8 199 18 253 74 374 57 123 103 182
309 390 216 220 196 207 332 218 l71 6 24 -118 c17 -82 30 -124 44 -139 12
-12 52 -28 93 -39 40 -9 72 -21 72 -25 0 -17 -114 -78 -298 -159 -232 -102
-303 -151 -377 -261 -97 -144 -90 -53 -93 -1139 l-2 -954 -80 -100 c-91 -114
-101 -149 -54 -186 32 -25 52 -26 82 -5 31 21 340 407 352 439 29 75 -70 129
-125 69 l-25 -27 0 630 0 630 153 5 c140 4 157 7 215 33 40 18 77 44 102 72
37 43 53 74 128 263 l38 95 148 48 c81 27 150 46 152 44 8 -8 -167 -638 -188
-680 -10 -21 -46 -64 -78 -97 -65 -63 -74 -91 -41 -131 30 -38 80 -31 138 17
86 73 130 153 177 324 l15 55 313 169 c373 202 386 210 400 241 16 35 -6 81
-44 94 -19 7 -130 11 -280 11 l-248 0 6 28 c4 15 12 29 17 31 61 23 174 90
218 128 147 128 213 251 258 478 114 582 163 868 152 891 -13 30 -52 49 -83
41 -14 -4 -145 -137 -321 -327 -164 -176 -301 -320 -305 -320 -4 0 -15 13 -25
29 -9 16 -38 55 -63 85 -28 35 -42 61 -38 69 7 10 225 298 701 925 38 50 63
93 63 108 0 31 -42 74 -72 74 -13 0 -297 -165 -632 -366 -485 -290 -615 -364
-633 -359 -17 4 -23 11 -19 23 3 9 39 137 81 284 74 258 76 268 60 297 -19 38
-59 50 -96 29 -15 -9 -150 -121 -301 -250 l-273 -235 -137 11 c-92 6 -184 6
-275 0 l-138 -10 -279 239 c-153 131 -289 243 -302 249 -34 16 -72 2 -89 -33
-16 -29 -14 -39 60 -297 42 -147 78 -275 81 -284 4 -12 -2 -19 -18 -23 -18 -5
-157 74 -632 360 -348 209 -619 365 -633 365 -13 0 -35 -11 -48 -25z m748
-555 c207 -124 377 -228 377 -231 0 -3 -33 -26 -72 -52 -40 -25 -101 -68 -135
-96 l-62 -50 -94 122 c-257 335 -409 539 -400 536 6 -2 179 -105 386 -229z
m3011 23 c-87 -115 -200 -263 -251 -330 l-94 -122 -62 50 c-34 28 -95 71 -134
96 -40 26 -73 49 -73 52 1 7 750 459 763 460 4 1 -63 -92 -149 -206z m-2216
54 c62 -53 113 -100 115 -103 2 -8 -174 -57 -181 -50 -2 3 -19 58 -38 122 -19
65 -37 127 -40 138 -8 24 -25 37 144 -107z m1312 53 c-10 -36 -28 -98 -40
-138 -19 -67 -23 -73 -43 -68 -12 3 -51 14 -87 24 -36 9 -65 22 -66 27 0 10
248 227 253 222 1 -2 -6 -32 -17 -67z m-529 -271 c318 -32 596 -127 836 -285
105 -68 302 -263 351 -346 40 -67 44 -56 -71 -178 l-78 -82 -89 22 c-72 19
-90 27 -93 44 -3 12 -15 70 -28 130 -31 153 -27 150 -203 141 l-141 -7 -55 93
c-70 119 -95 149 -127 149 -13 0 -72 -21 -131 -46 -59 -25 -112 -48 -118 -50
-6 -3 -55 34 -108 81 -54 47 -109 88 -122 91 -29 7 -54 -8 -149 -90 -38 -33
-77 -66 -86 -73 -14 -11 -34 -6 -135 37 -118 50 -139 55 -168 44 -9 -4 -49
-60 -88 -126 l-71 -119 -36 5 c-20 3 -81 8 -136 12 -137 8 -138 8 -172 -161
-15 -71 -28 -132 -29 -134 -2 -1 -40 -14 -85 -26 l-83 -24 -80 86 c-119 126
-114 114 -74 181 47 81 245 276 348 344 253 166 535 259 880 292 82 7 245 5
341 -5z m-1844 -656 c208 -224 396 -425 418 -447 63 -61 157 -117 325 -190
219 -97 263 -121 320 -182 46 -49 109 -158 97 -170 -8 -8 -1060 327 -1126 359
-126 61 -242 196 -281 327 -11 36 -45 198 -75 360 -30 162 -58 307 -61 323 -3
15 -3 27 -1 27 3 0 176 -183 384 -407z m3633 81 c-33 -175 -69 -348 -80 -384
-39 -131 -155 -266 -281 -327 -69 -33 -1118 -367 -1127 -359 -9 9 56 129 88
163 56 60 98 84 294 173 219 98 262 122 328 177 25 21 222 228 438 461 216
232 394 421 396 419 2 -2 -23 -147 -56 -323z m-1883 76 c63 -54 103 -80 119
-80 14 0 73 20 131 45 58 25 106 45 108 45 1 0 22 -32 45 -71 l42 -71 -199
-201 c-199 -201 -278 -301 -320 -403 -10 -24 -20 -44 -23 -44 -3 0 -22 33 -42
73 -55 112 -141 217 -327 401 -94 93 -171 172 -171 177 0 9 70 128 79 134 4 2
54 -16 111 -41 58 -24 117 -44 132 -44 19 0 53 23 120 80 51 43 95 79 97 80 2
0 46 -36 98 -80z m-1615 -1240 c10 -36 17 -71 16 -77 -3 -11 -245 112 -273
138 -6 6 39 9 114 7 l124 -3 19 -65z m886 -25 l152 -48 0 -60 0 -60 -143 5
c-196 6 -215 18 -277 173 -16 41 -30 77 -30 79 0 5 30 -5 298 -89z m1532 11
c-38 -97 -54 -120 -98 -148 -31 -19 -53 -22 -179 -26 l-143 -5 0 60 0 59 223
71 c122 38 223 69 225 68 1 -2 -11 -37 -28 -79z m875 75 c-24 -22 -270 -149
-273 -141 -3 8 17 89 33 138 3 9 38 12 127 12 71 0 118 -4 113 -9z"/>
<path d="M2104 1969 c-18 -20 -19 -45 -22 -466 l-3 -445 -24 26 c-55 60 -153
6 -125 -69 12 -32 321 -418 352 -439 30 -21 50 -20 82 5 47 37 37 72 -54 187
l-80 100 0 541 c0 528 0 541 -20 561 -27 27 -81 26 -106 -1z"/>
</g>
</svg>
