<?xml version="1.0" standalone="no"?>
<!DOCTYPE svg PUBLIC "-//W3C//DTD SVG 20010904//EN"
 "http://www.w3.org/TR/2001/REC-SVG-20010904/DTD/svg10.dtd">
<svg version="1.0" xmlns="http://www.w3.org/2000/svg"
 width="512.000000pt" height="512.000000pt" viewBox="0 0 512.000000 512.000000"
 preserveAspectRatio="xMidYMid meet">

<g transform="translate(0.000000,512.000000) scale(0.100000,-0.100000)"
fill="#000000" stroke="none">
<path d="M2357 4949 c-11 -6 -25 -26 -33 -45 -11 -27 -20 -34 -42 -34 -41 0
-168 -35 -236 -65 -152 -67 -303 -197 -386 -333 l-45 -72 -63 0 c-53 0 -67 -4
-87 -25 -24 -24 -25 -27 -25 -185 l0 -162 -146 -178 c-144 -175 -147 -178
-192 -185 -223 -33 -462 -162 -627 -336 -193 -204 -292 -442 -302 -724 -10
-276 63 -512 223 -722 178 -232 466 -401 737 -430 31 -3 57 -10 57 -16 0 -5
-47 -84 -104 -176 -57 -91 -110 -178 -117 -193 -16 -37 3 -82 41 -98 l29 -12
-42 -77 -41 -78 -80 -11 c-227 -33 -425 -223 -465 -446 -18 -96 -14 -134 14
-161 l24 -25 832 0 c624 0 842 3 873 12 55 16 138 99 154 154 7 23 12 85 12
138 l0 96 240 0 240 0 0 -96 c0 -53 5 -115 12 -138 16 -55 99 -138 154 -154
31 -9 249 -12 873 -12 l832 0 24 25 c28 27 32 65 14 161 -40 222 -235 410
-462 446 l-76 12 -34 76 -34 75 29 26 c31 30 35 56 14 97 -8 15 -95 157 -195
316 -99 159 -178 293 -175 298 3 4 14 4 24 -2 10 -5 63 -10 118 -10 l100 0 12
-30 c25 -61 129 -130 194 -130 14 0 16 -23 16 -215 0 -286 -19 -265 240 -265
189 0 191 0 215 25 l25 24 0 225 c0 218 1 225 21 231 33 11 88 65 112 109 32
62 30 156 -5 218 l-27 48 27 47 c38 68 38 158 0 227 -28 48 -28 48 -9 75 30
43 44 100 38 157 -5 49 -4 54 14 54 11 0 31 11 44 25 25 24 25 26 25 215 0
189 0 191 -25 215 -19 20 -34 25 -75 25 -27 0 -50 3 -50 6 0 3 34 326 75 717
41 391 75 719 75 729 0 27 -428 537 -458 545 -14 3 -35 2 -48 -3 -33 -13 -454
-520 -454 -547 0 -12 20 -213 45 -446 25 -233 44 -425 43 -426 -2 -2 -94 109
-205 245 l-203 248 0 162 c0 158 -1 161 -25 185 -20 21 -34 25 -87 25 l-63 0
-45 72 c-83 136 -234 266 -386 333 -68 30 -195 65 -236 65 -22 0 -31 7 -42 34
-8 19 -23 39 -34 45 -27 15 -380 14 -405 0z m283 -604 l0 -456 26 -26 c14 -14
24 -26 22 -28 -2 -1 -31 -17 -65 -34 l-63 -31 -62 31 c-35 17 -64 33 -66 34
-2 2 8 14 22 28 l26 26 0 456 0 455 80 0 80 0 0 -455z m-320 210 l0 -155 -255
0 c-140 0 -255 4 -255 9 0 20 126 144 189 186 96 63 222 112 294 114 l27 1 0
-155z m632 125 c99 -33 196 -96 281 -181 42 -43 77 -83 77 -89 0 -7 -86 -10
-255 -10 l-255 0 0 156 0 157 45 -6 c24 -4 72 -16 107 -27z m1448 -875 l0
-845 -45 0 c-25 0 -45 5 -45 11 0 5 -34 323 -75 706 -63 587 -73 699 -62 712
8 9 60 71 117 139 56 67 104 122 106 122 2 0 4 -380 4 -845z m270 723 c57 -68
109 -130 117 -139 11 -13 1 -128 -62 -712 -41 -383 -75 -701 -75 -707 0 -5
-20 -10 -45 -10 l-45 0 0 845 c0 465 2 845 4 845 2 0 50 -55 106 -122z m-2350
-368 l0 -80 -360 0 -360 0 0 80 0 80 360 0 360 0 0 -80z m1200 0 l0 -80 -360
0 -360 0 0 80 0 80 360 0 360 0 0 -80z m-1840 -249 c0 -28 33 -188 53 -257
l24 -82 -68 28 c-71 30 -201 64 -281 76 l-47 6 97 119 97 118 63 0 c34 1 62
-3 62 -8z m518 -5 c-10 -7 -22 -25 -28 -40 -19 -50 4 -75 127 -140 l111 -60
-89 -43 c-99 -49 -187 -125 -233 -205 -28 -47 -28 -48 -51 -30 -29 21 -105
180 -135 280 -21 72 -50 210 -50 238 0 12 32 14 183 14 151 -1 179 -3 165 -14z
m1066 -63 c-21 -112 -70 -264 -119 -368 -67 -140 -66 -138 -105 -69 -50 90
-134 166 -239 217 l-89 44 110 54 c61 30 116 63 124 74 22 30 17 73 -11 100
l-24 25 183 0 184 0 -14 -77z m411 -59 c61 -75 120 -148 132 -163 l21 -27
-111 0 c-101 1 -118 -2 -167 -25 -50 -24 -140 -101 -140 -121 0 -4 -23 -8 -51
-8 -45 0 -50 2 -44 18 52 120 115 355 115 430 l0 32 68 -1 67 0 110 -135z
m-2450 -289 c-33 -32 -33 -78 -1 -110 l24 -24 -36 -6 c-182 -27 -339 -91 -439
-180 -29 -26 -53 -41 -53 -35 0 23 -49 60 -80 60 -41 0 -80 -39 -80 -80 0 -33
38 -80 64 -80 11 0 5 -16 -23 -60 -21 -33 -50 -88 -64 -123 -26 -65 -57 -196
-57 -241 l0 -25 -25 24 c-32 33 -78 33 -112 -1 l-25 -25 7 63 c23 222 114 415
270 573 50 51 112 106 138 124 139 94 341 165 484 170 l32 1 -24 -25z m274 -1
c283 -64 547 -285 662 -554 35 -82 64 -197 74 -288 l7 -63 -25 25 c-34 34 -80
34 -112 1 l-25 -24 0 25 c0 45 -31 176 -57 241 -14 35 -43 90 -64 123 -28 44
-34 60 -23 60 26 0 64 47 64 80 0 41 -39 80 -80 80 -31 0 -80 -37 -80 -60 0
-6 -24 9 -52 35 -100 88 -272 158 -443 180 -42 6 -46 8 -30 17 52 27 60 84 19
125 l-25 25 63 -7 c35 -4 92 -13 127 -21z m1233 -22 c84 -41 167 -128 199
-209 21 -50 23 -75 23 -188 -1 -301 -118 -594 -327 -820 l-65 -70 -42 40 c-23
22 -60 64 -83 94 l-42 54 -1 181 c0 162 -3 191 -27 278 -29 109 -88 242 -149
336 l-41 62 18 45 c19 51 99 143 151 176 78 48 124 59 225 56 84 -2 103 -6
161 -35z m1164 -66 c68 -22 180 -79 208 -106 7 -7 44 -273 46 -327 0 -9 -17
-13 -50 -13 -73 0 -100 -29 -100 -105 l0 -55 -240 0 -240 0 0 254 c0 156 4
266 11 283 14 37 47 72 84 90 44 20 183 10 281 -21z m-536 -421 l0 -296 25
-24 c24 -25 27 -25 200 -25 l175 0 0 -336 c0 -235 -4 -349 -12 -378 -16 -55
-99 -138 -154 -154 -31 -9 -230 -12 -783 -12 l-742 0 60 73 c72 87 151 216
183 297 l23 59 96 -94 c118 -117 130 -119 216 -44 273 237 447 598 470 975 l6
107 50 73 51 74 68 0 68 0 0 -295z m-2160 3 l0 -203 -37 -20 c-52 -28 -99 -94
-113 -158 -11 -45 -10 -62 4 -111 19 -63 69 -126 116 -146 l30 -12 0 -204 0
-204 -22 0 c-34 0 -95 18 -160 47 l-58 26 0 557 0 558 53 22 c60 27 132 48
165 49 l22 1 0 -202z m245 191 c22 -6 66 -22 98 -36 l57 -26 0 -557 0 -558
-52 -22 c-57 -25 -143 -50 -170 -50 -17 0 -18 16 -18 204 l0 204 30 12 c47 20
97 83 116 146 14 49 15 66 4 111 -14 64 -61 130 -113 158 l-37 20 0 203 0 202
23 0 c12 0 40 -5 62 -11z m-647 -830 l-3 -210 -47 71 c-26 40 -60 108 -75 153
-38 118 -38 276 0 394 15 45 49 113 75 153 l47 71 3 -210 c1 -116 1 -306 0
-422z m1063 475 c63 -137 73 -303 28 -449 -25 -83 -45 -122 -93 -190 l-36 -50
0 425 0 425 36 -50 c20 -28 49 -77 65 -111z m2939 -104 l0 -80 -320 0 -320 0
0 80 0 80 320 0 320 0 0 -80z m-3465 -105 c50 -49 15 -135 -55 -135 -19 0 -40
9 -55 25 -50 49 -15 135 55 135 19 0 40 -9 55 -25z m2669 -37 c8 -88 8 -97 0
-154 -7 -56 6 -111 37 -155 19 -27 19 -27 -9 -75 -38 -69 -38 -159 0 -226 l26
-48 -21 -40 c-21 -38 -24 -40 -69 -40 l-48 0 0 400 0 400 39 0 39 0 6 -62z
m-3604 -98 c19 0 40 9 55 25 l25 24 0 -25 c0 -45 31 -176 57 -241 14 -35 43
-90 64 -123 28 -44 34 -60 23 -60 -26 0 -64 -47 -64 -80 0 -41 39 -80 80 -80
31 0 80 37 80 60 0 7 21 -7 48 -30 98 -87 234 -150 377 -175 48 -8 91 -15 96
-15 4 0 -3 -11 -16 -25 -40 -39 -31 -94 20 -124 16 -10 5 -11 -54 -6 -449 38
-818 404 -866 858 l-8 69 26 -26 c17 -17 37 -26 57 -26z m1760 0 c20 0 40 9
57 26 l26 26 -8 -68 c-24 -224 -116 -414 -280 -579 -137 -137 -284 -220 -456
-259 -80 -18 -213 -30 -182 -17 47 21 57 88 18 126 -13 14 -20 25 -16 25 5 0
48 7 96 15 143 25 279 88 378 175 26 23 47 37 47 30 0 -23 49 -60 80 -60 36 0
80 38 80 69 0 34 -22 70 -50 83 l-27 12 37 58 c62 96 120 270 120 362 l0 25
25 -24 c15 -16 36 -25 55 -25z m2535 -25 c16 -15 25 -36 25 -55 0 -19 -9 -40
-25 -55 l-24 -25 -231 0 -231 0 -24 25 c-16 15 -25 36 -25 55 0 19 9 40 25 55
l24 25 231 0 231 0 24 -25z m0 -320 c16 -15 25 -36 25 -55 0 -19 -9 -40 -25
-55 l-24 -25 -231 0 -231 0 -24 25 c-16 15 -25 36 -25 55 0 19 9 40 25 55 l24
25 231 0 231 0 24 -25z m0 -320 c16 -15 25 -36 25 -55 0 -19 -9 -40 -25 -55
l-24 -25 -231 0 -231 0 -24 25 c-16 15 -25 36 -25 55 0 19 9 40 25 55 l24 25
231 0 231 0 24 -25z m-914 -445 c81 -129 148 -238 148 -242 1 -5 -133 -8 -296
-8 l-298 0 -84 228 c-46 125 -86 233 -89 239 -3 10 46 13 210 16 117 1 224 3
237 2 20 0 47 -37 172 -235z m-1823 218 c-3 -7 -43 -115 -89 -240 l-84 -228
-297 0 c-164 0 -298 3 -297 8 0 4 44 77 98 162 l99 154 77 13 c100 17 244 65
320 107 47 27 72 34 119 35 42 1 57 -2 54 -11z m1002 -228 l0 -240 -400 0
-400 0 0 240 0 240 400 0 400 0 0 -240z m1600 0 l0 -160 -80 0 -80 0 0 160 0
160 80 0 80 0 0 -160z m-2531 -381 c21 -17 42 -19 237 -19 l214 0 0 -120 0
-120 -560 0 c-498 0 -560 2 -560 15 0 9 -11 27 -25 40 -22 23 -32 25 -110 25
-48 0 -85 3 -83 8 2 4 20 40 42 80 l38 72 322 0 c269 0 325 2 343 15 13 9 37
59 65 134 l43 119 5 -115 c5 -106 7 -116 29 -134z m1140 126 c23 -60 51 -118
62 -127 19 -16 52 -18 358 -18 l337 0 36 -80 36 -80 -94 0 c-87 0 -97 -2 -119
-25 -14 -13 -25 -31 -25 -40 0 -13 -62 -15 -560 -15 l-560 0 0 120 0 120 215
0 c216 0 216 0 240 25 23 23 25 31 25 131 0 59 2 105 4 103 2 -2 23 -53 45
-114z m-1969 -480 c0 -9 11 -27 25 -40 l24 -25 456 0 455 0 0 -95 c0 -88 -2
-98 -25 -120 l-24 -25 -771 0 c-644 0 -770 2 -770 14 0 32 73 156 114 194 49
45 126 88 183 101 21 5 104 9 186 10 126 1 147 -1 147 -14z m3122 -22 c90 -42
150 -100 193 -186 19 -38 35 -76 35 -83 0 -12 -126 -14 -770 -14 l-771 0 -24
25 c-23 22 -25 32 -25 120 l0 95 455 0 456 0 24 25 c14 13 25 31 25 41 0 14
17 16 168 12 163 -3 168 -4 234 -35z"/>
<path d="M2345 3335 c-16 -15 -25 -36 -25 -55 0 -19 9 -40 25 -55 24 -25 26
-25 215 -25 189 0 191 0 215 25 16 15 25 36 25 55 0 19 -9 40 -25 55 -24 25
-26 25 -215 25 -189 0 -191 0 -215 -25z"/>
</g>
</svg>
