<?xml version="1.0" standalone="no"?>
<!DOCTYPE svg PUBLIC "-//W3C//DTD SVG 20010904//EN"
 "http://www.w3.org/TR/2001/REC-SVG-20010904/DTD/svg10.dtd">
<svg version="1.0" xmlns="http://www.w3.org/2000/svg"
 width="512.000000pt" height="512.000000pt" viewBox="0 0 512.000000 512.000000"
 preserveAspectRatio="xMidYMid meet">

<g transform="translate(0.000000,512.000000) scale(0.100000,-0.100000)"
fill="#000000" stroke="none">
<path d="M2430 5114 c-367 -43 -607 -133 -865 -324 -228 -169 -395 -371 -515
-624 -82 -172 -122 -305 -155 -518 l-6 -38 -313 0 -313 0 -27 -26 c-29 -29
-34 -77 -13 -106 7 -9 158 -89 335 -177 l322 -161 0 -1039 0 -1039 -25 -54
c-51 -110 -56 -162 -53 -548 l3 -355 24 -34 c13 -18 42 -42 65 -52 39 -18 103
-19 1666 -19 1563 0 1627 1 1666 19 23 10 52 34 65 52 l24 34 3 363 c3 394 0
424 -53 541 l-25 53 0 1039 0 1039 322 161 c177 88 328 168 335 177 21 29 16
77 -13 106 l-27 26 -313 0 -313 0 -6 38 c-36 235 -79 374 -172 557 -215 424
-610 741 -1073 860 -148 38 -429 63 -550 49z m434 -194 c242 -52 482 -167 663
-318 41 -34 44 -40 38 -72 -3 -19 -17 -45 -31 -57 l-25 -23 -948 0 c-930 0
-949 0 -974 20 -14 11 -28 35 -31 56 -7 33 -4 39 35 72 181 158 455 284 718
332 144 27 410 22 555 -10z m-1401 -568 c17 -17 55 -41 84 -52 51 -19 78 -20
488 -20 l435 0 0 -29 c0 -37 -36 -90 -80 -115 -32 -19 -54 -21 -285 -24 -239
-3 -251 -4 -273 -25 -12 -11 -25 -38 -28 -58 -11 -66 -33 -77 -166 -81 -107
-3 -119 -5 -142 -27 -30 -28 -34 -75 -11 -109 10 -13 39 -28 71 -38 47 -13 58
-21 70 -49 16 -40 7 -75 -28 -99 -19 -14 -60 -16 -280 -16 -156 0 -258 4 -258
9 0 38 46 238 72 309 58 165 152 339 241 445 36 43 41 47 50 30 5 -10 23 -33
40 -51z m2347 -62 c102 -150 186 -349 226 -538 13 -61 24 -119 24 -127 0 -13
-36 -15 -259 -15 -242 0 -260 1 -283 20 -31 24 -39 59 -22 98 10 24 23 33 68
46 32 10 61 25 71 38 23 34 19 81 -11 109 -23 22 -35 24 -142 27 -134 4 -155
15 -166 82 -12 77 -16 78 -300 82 -232 3 -254 5 -286 24 -44 25 -80 78 -80
115 l0 29 435 0 c413 0 437 1 489 20 53 20 125 84 126 113 1 16 61 -52 110
-123z m-1330 -349 c0 -46 -7 -60 -85 -177 -54 -82 -85 -138 -85 -155 0 -18 34
-79 96 -172 146 -221 161 -221 308 -1 64 96 96 153 96 172 0 18 -29 71 -85
156 -78 117 -85 131 -85 177 0 27 2 49 3 49 2 0 18 -7 35 -15 50 -26 137 -35
319 -35 166 0 172 -1 178 -21 11 -34 71 -94 113 -113 l39 -18 -5 -72 c-6 -91
21 -160 81 -212 55 -46 120 -64 234 -64 l93 0 0 -354 c0 -387 -6 -453 -58
-606 -162 -477 -611 -800 -1112 -800 -500 0 -950 324 -1112 800 -52 153 -58
219 -58 606 l0 354 93 0 c114 0 179 18 234 64 60 52 87 121 81 212 l-5 72 39
18 c42 19 102 79 113 113 6 20 12 21 178 21 181 0 269 9 315 33 41 22 42 21
42 -32z m114 -281 c14 -22 26 -44 26 -50 0 -14 -51 -90 -60 -90 -9 0 -60 76
-60 90 0 14 51 90 60 90 4 0 19 -18 34 -40z m-1374 -360 c0 -77 -2 -140 -5
-140 -2 0 -129 63 -282 139 l-278 140 283 0 282 1 0 -140z m2970 0 c-151 -76
-278 -139 -282 -139 -5 -1 -8 62 -8 139 l0 140 283 -1 282 0 -275 -139z
m-3051 -289 l78 -40 6 -158 c3 -87 13 -191 22 -233 83 -377 329 -713 653 -892
l72 -40 0 -154 0 -154 -332 0 c-370 1 -399 -3 -520 -64 l-68 -34 0 904 c0 497
2 904 5 904 3 0 41 -18 84 -39z m2931 -865 l0 -904 -67 34 c-122 61 -151 65
-520 64 l-333 0 0 154 0 154 68 37 c230 126 448 361 557 601 84 185 114 315
122 527 l6 158 76 39 c42 21 79 39 84 40 4 0 7 -407 7 -904z m-1629 -628 c143
-14 308 -1 448 36 l91 23 0 -173 c0 -168 1 -174 24 -201 24 -28 25 -28 171
-33 l146 -5 -380 -172 -381 -172 -381 172 -380 172 146 5 c146 5 147 5 171 33
23 27 24 33 24 201 l0 173 91 -23 c51 -13 145 -29 210 -36z m-583 -564 c262
-118 480 -218 484 -222 4 -4 -270 -132 -608 -285 l-614 -277 -76 0 -75 0 3
348 3 347 33 68 c54 109 144 187 257 223 86 27 89 26 593 -202z m2055 178 c82
-38 156 -113 199 -199 l33 -68 3 -347 3 -348 -1308 1 c-1307 0 -1308 0 -1268
20 22 11 517 236 1100 500 l1060 480 57 -5 c36 -2 83 -16 121 -34z"/>
</g>
</svg>
