<?xml version="1.0" standalone="no"?>
<!DOCTYPE svg PUBLIC "-//W3C//DTD SVG 20010904//EN"
 "http://www.w3.org/TR/2001/REC-SVG-20010904/DTD/svg10.dtd">
<svg version="1.0" xmlns="http://www.w3.org/2000/svg"
 width="512.000000pt" height="512.000000pt" viewBox="0 0 512.000000 512.000000"
 preserveAspectRatio="xMidYMid meet">

<g transform="translate(0.000000,512.000000) scale(0.100000,-0.100000)"
fill="#000000" stroke="none">
<path d="M2235 5095 c-22 -21 -25 -33 -25 -93 l0 -68 -62 -13 c-438 -90 -819
-385 -1023 -791 -74 -149 -126 -331 -150 -532 -4 -30 -11 -48 -19 -48 -7 0
-25 -9 -40 -21 l-26 -20 0 -187 c1 -143 -15 -387 -67 -1045 l-68 -858 -25 5
c-66 15 -307 27 -456 24 l-166 -3 -24 -28 -24 -28 0 -333 c0 -402 8 -462 87
-620 79 -160 204 -280 376 -361 160 -76 -12 -70 2037 -70 l1835 0 78 23 c276
80 483 291 559 568 19 71 21 111 26 413 5 384 2 404 -56 428 -32 13 -73 15
-287 9 -137 -3 -283 -12 -322 -19 -40 -7 -73 -11 -73 -9 0 2 -29 369 -65 814
-53 666 -65 850 -65 1030 0 148 -4 226 -12 241 -14 27 -38 46 -58 47 -12 0
-18 22 -27 98 -73 607 -534 1125 -1123 1263 l-100 23 0 64 c0 57 -3 67 -29 93
l-29 29 -277 0 -276 0 -24 -25z m465 -845 l0 -700 -165 0 -165 0 0 700 0 700
165 0 165 0 0 -700z m-490 -95 l0 -605 -536 0 -537 0 7 69 c32 322 214 661
464 862 157 127 296 201 482 256 41 12 85 22 98 22 l22 1 0 -605z m797 574
c511 -163 864 -593 927 -1131 l6 -48 -535 0 -535 0 0 605 c0 597 0 605 20 605
11 0 64 -14 117 -31z m1013 -1504 l0 -165 -1485 0 -1485 0 0 165 0 165 1485 0
1485 0 0 -165z m-2629 -371 c141 -148 471 -272 847 -319 l52 -7 0 -124 0 -124
-47 6 c-564 66 -985 270 -1133 547 l-31 57 138 0 139 0 35 -36z m1229 -334 l0
-370 -85 0 -85 0 0 370 0 370 85 0 85 0 0 -370z m1370 363 c0 -27 -75 -130
-144 -198 -92 -92 -160 -139 -296 -206 -195 -96 -422 -158 -712 -193 l-48 -6
0 125 0 124 48 6 c393 53 682 159 832 307 l45 45 138 1 c75 1 137 -1 137 -5z
m-2745 -431 c47 -33 135 -86 195 -117 l110 -56 0 -791 0 -792 -147 145 -148
145 -175 34 c-96 18 -178 36 -182 39 -3 3 22 364 58 801 35 437 64 796 64 798
0 1 31 -31 70 -72 38 -40 108 -100 155 -134z m2876 -605 c33 -422 59 -773 56
-780 -3 -7 -80 -27 -178 -46 l-174 -34 -147 -145 -148 -146 0 794 0 795 90 43
c155 75 297 179 392 286 40 47 43 48 45 25 2 -13 30 -370 64 -792z m-2281 342
c119 -30 355 -69 418 -69 31 0 32 -1 32 -41 0 -31 6 -47 29 -70 l29 -29 181 0
c99 0 191 4 206 10 28 10 55 62 55 103 0 23 4 25 76 31 103 9 279 41 392 71
52 14 96 25 98 25 2 0 4 -157 4 -349 l0 -350 -82 -54 c-150 -99 -307 -166
-478 -203 -119 -26 -400 -26 -520 -1 -179 39 -335 104 -484 204 l-86 58 0 348
c0 191 2 347 5 347 3 0 59 -14 125 -31z m-1132 -925 l33 -6 -8 -102 c-13 -168
-11 -205 14 -225 14 -12 92 -32 220 -57 l198 -38 199 -196 c222 -221 208 -196
222 -378 l7 -93 -444 3 -444 3 -70 29 c-182 75 -302 196 -373 374 -27 67 -27
67 -30 386 l-3 318 223 -5 c123 -4 238 -9 256 -13z m4182 -261 c0 -205 -4
-296 -15 -347 -37 -176 -172 -346 -335 -424 -47 -22 -109 -45 -138 -51 -33 -7
-206 -11 -464 -11 l-411 0 6 97 c3 54 13 130 21 168 l17 71 162 162 163 163
199 40 c123 24 210 47 225 58 23 17 25 24 25 102 0 46 -2 113 -5 149 l-4 64
33 8 c71 19 155 26 334 27 l187 1 0 -277z m-3003 222 c408 -202 906 -200 1316
7 l79 39 -4 -104 c-3 -95 -6 -108 -33 -152 -22 -36 -45 -57 -84 -77 l-53 -28
-569 0 c-616 0 -601 -1 -667 55 -55 46 -75 97 -80 208 -3 53 -2 97 0 97 3 0
46 -20 95 -45z m-31 -445 c26 -12 72 -26 103 -31 77 -12 1094 -12 1161 1 75
14 149 50 198 97 l42 40 0 -198 c0 -114 4 -209 11 -225 7 -20 6 -67 -2 -161
l-13 -133 -801 0 -802 0 -6 113 c-4 61 -13 141 -22 177 -10 44 -14 124 -15
248 l0 184 50 -45 c27 -24 70 -54 96 -67z"/>
<path d="M2454 4777 c-3 -8 -4 -45 -2 -83 l3 -69 83 -3 82 -3 0 86 0 85 -80 0
c-58 0 -82 -4 -86 -13z"/>
<path d="M2454 4447 c-3 -8 -4 -45 -2 -83 l3 -69 83 -3 82 -3 0 86 0 85 -80 0
c-58 0 -82 -4 -86 -13z"/>
<path d="M2454 4117 c-3 -8 -4 -45 -2 -83 l3 -69 83 -3 82 -3 0 86 0 85 -80 0
c-58 0 -82 -4 -86 -13z"/>
<path d="M2454 3787 c-3 -8 -4 -45 -2 -83 l3 -69 83 -3 82 -3 0 86 0 85 -80 0
c-58 0 -82 -4 -86 -13z"/>
<path d="M1300 3220 l0 -80 80 0 80 0 0 80 0 80 -80 0 -80 0 0 -80z"/>
<path d="M1630 3220 l0 -80 80 0 80 0 0 80 0 80 -80 0 -80 0 0 -80z"/>
<path d="M2040 3220 l0 -80 85 0 85 0 0 80 0 80 -85 0 -85 0 0 -80z"/>
<path d="M2450 3220 l0 -80 85 0 85 0 0 80 0 80 -85 0 -85 0 0 -80z"/>
<path d="M2870 3220 l0 -80 80 0 80 0 0 80 0 80 -80 0 -80 0 0 -80z"/>
<path d="M3280 3220 l0 -80 85 0 85 0 0 80 0 80 -85 0 -85 0 0 -80z"/>
<path d="M3610 3220 l0 -80 85 0 85 0 0 80 0 80 -85 0 -85 0 0 -80z"/>
<path d="M2158 1880 c-31 -24 -39 -59 -22 -99 21 -49 50 -53 427 -49 l339 3
24 28 c39 45 29 98 -23 125 -15 9 -125 12 -371 12 -333 0 -350 -1 -374 -20z"/>
</g>
</svg>
