<?xml version="1.0" standalone="no"?>
<!DOCTYPE svg PUBLIC "-//W3C//DTD SVG 20010904//EN"
 "http://www.w3.org/TR/2001/REC-SVG-20010904/DTD/svg10.dtd">
<svg version="1.0" xmlns="http://www.w3.org/2000/svg"
 width="980.000000pt" height="816.000000pt" viewBox="0 0 980.000000 816.000000"
 preserveAspectRatio="xMidYMid meet">

<g transform="translate(0.000000,816.000000) scale(0.100000,-0.100000)"
fill="#000000" stroke="none">
<path d="M345 8129 c-60 -11 -148 -29 -195 -42 -78 -20 -86 -25 -102 -57 -40
-81 -41 -159 -45 -4080 l-4 -3775 39 -38 c46 -45 132 -78 273 -104 75 -14 145
-18 349 -18 227 1 267 3 360 23 163 36 361 106 525 186 392 193 636 405 947
826 269 364 443 683 599 1102 39 106 73 194 74 196 2 2 54 -63 117 -145 273
-352 521 -584 888 -830 517 -346 1112 -554 1728 -604 178 -15 563 -6 722 16
322 44 630 125 911 240 779 318 1478 957 1851 1690 270 532 397 1006 415 1555
45 1397 -771 2730 -2057 3357 -546 266 -1029 366 -1685 350 -554 -14 -956
-113 -1454 -357 -402 -197 -661 -384 -988 -709 -186 -185 -291 -310 -449 -534
-66 -95 -125 -172 -130 -171 -5 0 -56 93 -114 205 -162 316 -221 415 -373 624
-284 391 -456 564 -753 759 -281 183 -570 298 -865 341 -153 22 -441 19 -584
-6z m465 -316 c3 -3 5 -642 5 -1421 0 -1043 -3 -1433 -12 -1477 -61 -311 -58
-279 -58 -735 0 -447 0 -447 52 -695 15 -72 17 -211 21 -1320 2 -682 0 -1372
-3 -1533 l-7 -294 -217 5 c-119 2 -226 8 -239 12 l-22 7 2 3716 3 3716 35 9
c73 18 423 26 440 10z m520 -135 c201 -87 384 -208 563 -370 l58 -53 -3 -762
-3 -763 -65 42 c-237 150 -430 135 -647 -52 l-83 -71 0 1051 0 1051 23 -7 c12
-4 83 -33 157 -66z m5350 -51 c492 -64 1055 -297 1481 -614 655 -486 1095
-1194 1253 -2018 25 -129 49 -322 61 -485 l6 -85 -78 -109 c-202 -282 -486
-517 -827 -685 -166 -82 -321 -149 -364 -157 -29 -6 -32 -3 -68 62 -94 170
-198 291 -349 403 -159 119 -310 195 -507 255 -170 51 -250 60 -483 52 -229
-7 -328 -24 -480 -81 -222 -83 -378 -179 -555 -339 -96 -88 -106 -95 -125 -82
-56 37 -443 260 -504 291 l-71 35 0 183 0 182 98 49 c126 63 201 117 287 207
183 193 278 434 261 659 -24 322 -227 614 -530 760 -123 59 -193 79 -313 87
-398 26 -796 -264 -922 -671 -17 -56 -21 -94 -21 -210 0 -175 11 -238 60 -342
48 -104 105 -188 187 -275 140 -148 288 -232 511 -289 l42 -11 0 -74 c0 -41
-5 -77 -10 -80 -6 -4 -88 21 -183 54 -333 117 -561 173 -896 221 -118 17 -217
32 -219 34 -2 3 -10 62 -18 133 -30 259 -99 625 -180 946 l-35 139 67 126
c124 236 255 425 446 647 113 131 300 313 418 408 306 247 744 472 1144 587
129 38 357 86 462 99 120 15 815 6 954 -12z m-4307 -864 c312 -472 524 -1037
641 -1713 59 -336 76 -559 76 -983 0 -331 -14 -561 -46 -782 -85 -578 -206
-995 -414 -1430 -103 -215 -304 -555 -329 -555 -18 0 -24 380 -17 1134 l7 779
40 150 c88 325 113 512 113 827 0 321 -32 546 -124 868 l-40 142 0 733 c0 715
5 927 21 927 4 0 37 -44 72 -97z m2602 -920 c96 -21 178 -67 250 -138 102
-100 137 -183 151 -348 14 -185 -39 -345 -153 -464 -48 -50 -124 -103 -148
-103 -9 0 -5 134 6 175 9 30 41 70 140 170 l128 131 -119 119 -120 120 -105
-105 -105 -105 -105 105 -105 105 -120 -120 -120 -120 140 -140 140 -140 0
-101 c0 -129 -8 -142 -76 -125 -183 46 -331 193 -379 376 -17 68 -20 210 -5
305 33 210 222 385 454 420 64 10 161 3 251 -17z m-3269 -341 c55 -28 104 -86
169 -202 108 -190 183 -425 222 -697 26 -181 26 -674 0 -848 -41 -276 -90
-434 -195 -639 -93 -182 -168 -260 -274 -286 -151 -38 -316 127 -427 426 -37
102 -84 272 -111 402 -42 208 -45 786 -5 1018 31 178 116 445 187 592 44 90
152 216 210 246 46 24 168 17 224 -12z m1929 -1308 c311 -43 691 -149 1030
-288 l60 -24 3 -311 2 -311 170 0 170 0 0 123 c0 192 10 307 27 307 38 0 391
-234 662 -438 407 -306 665 -527 951 -812 244 -245 741 -785 880 -959 l52 -65
-48 -24 c-125 -63 -378 -153 -574 -202 -279 -70 -545 -103 -850 -103 -227 0
-363 12 -580 49 -405 69 -754 203 -1169 448 -375 222 -806 662 -1069 1092
l-62 100 30 150 c64 330 85 527 101 959 6 171 12 315 14 320 3 12 47 10 200
-11z m3506 -294 c231 -47 434 -153 567 -294 62 -67 122 -151 122 -173 0 -20
-34 -30 -225 -68 -378 -77 -577 -94 -1061 -95 l-261 0 -159 128 c-87 70 -160
135 -162 144 -7 37 215 219 332 274 115 53 242 83 456 108 74 9 297 -5 391
-24z m2279 -106 c0 -15 -12 -79 -26 -143 -150 -671 -500 -1274 -999 -1724
-119 -107 -320 -264 -388 -303 -78 -45 -49 -68 -354 281 -180 205 -374 416
-634 685 -212 220 -302 320 -295 328 3 2 123 10 268 18 408 22 638 54 948 131
297 73 531 158 795 288 244 120 408 230 598 402 39 34 74 63 79 63 4 0 8 -12
8 -26z m-8035 -1256 c176 -82 361 -54 538 82 l27 22 0 -870 0 -870 -77 -69
c-144 -127 -256 -206 -403 -286 -82 -45 -292 -137 -311 -137 -5 0 -9 466 -9
1144 l0 1145 88 -66 c48 -37 114 -79 147 -95z"/>
<path d="M7701 6185 c-194 -44 -375 -192 -479 -393 -40 -77 -45 -82 -75 -82
-18 0 -96 -5 -174 -10 -156 -10 -180 -18 -271 -89 -108 -86 -159 -202 -169
-383 -7 -118 -10 -112 57 -108 19 1 328 44 685 95 1071 155 1209 175 1214 181
3 2 5 48 4 102 0 120 -20 198 -81 322 -79 163 -227 289 -405 345 -99 32 -220
40 -306 20z m193 -320 c37 -8 87 -26 110 -39 75 -45 148 -128 130 -146 -11
-11 -537 -90 -596 -90 -34 0 -38 3 -38 25 0 42 54 148 91 179 50 42 151 82
214 85 11 0 51 -6 89 -14z"/>
</g>
</svg>
