<?xml version="1.0" standalone="no"?>
<!DOCTYPE svg PUBLIC "-//W3C//DTD SVG 20010904//EN"
 "http://www.w3.org/TR/2001/REC-SVG-20010904/DTD/svg10.dtd">
<svg version="1.0" xmlns="http://www.w3.org/2000/svg"
 width="512.000000pt" height="512.000000pt" viewBox="0 0 512.000000 512.000000"
 preserveAspectRatio="xMidYMid meet">

<g transform="translate(0.000000,512.000000) scale(0.100000,-0.100000)"
fill="#000000" stroke="none">
<path d="M1813 5025 c-29 -8 -72 -24 -95 -36 -23 -12 -72 -28 -108 -35 -248
-52 -413 -294 -379 -554 11 -79 64 -192 113 -239 l35 -34 -23 -31 c-51 -68
-57 -155 -17 -234 23 -46 81 -99 117 -108 17 -4 23 -11 20 -21 -3 -8 -6 -30
-6 -48 0 -31 -5 -36 -77 -75 -172 -92 -442 -290 -495 -362 -53 -70 -61 -146
-27 -246 l21 -61 -51 -213 c-113 -479 -194 -883 -241 -1201 -22 -152 -33 -179
-109 -270 -99 -119 -108 -276 -21 -394 26 -35 98 -93 130 -105 5 -2 -9 -100
-31 -218 -44 -247 -46 -278 -18 -340 25 -56 44 -77 91 -101 36 -18 66 -19 699
-17 650 3 662 3 675 23 11 16 11 25 1 45 l-13 25 -482 3 -482 2 0 45 c0 66 28
255 57 385 30 137 61 240 115 378 l40 102 436 -2 437 -3 0 -100 c0 -55 -2
-237 -5 -405 -5 -296 -4 -306 16 -350 27 -56 77 -108 129 -131 36 -17 72 -19
376 -19 247 0 338 3 347 12 17 17 15 40 -14 185 -75 373 -200 789 -310 1032
-29 62 -34 85 -34 148 0 75 -16 131 -47 166 -15 16 -16 20 -1 45 27 45 47 131
58 244 12 135 47 308 110 554 54 210 137 484 150 498 15 15 59 -151 75 -282
20 -162 49 -329 81 -459 l26 -103 -41 -47 c-46 -51 -71 -121 -71 -193 0 -53
13 -70 51 -70 35 0 45 14 53 79 8 65 26 102 62 130 38 30 108 28 169 -4 l47
-26 57 19 c31 11 70 22 87 25 l32 6 3 -122 c4 -107 7 -127 28 -160 31 -51 85
-77 159 -77 l59 0 5 -69 c4 -47 12 -80 27 -105 l23 -36 -22 -27 c-30 -39 -96
-91 -154 -120 -85 -43 -173 -56 -334 -49 -177 8 -287 27 -420 71 -121 41 -137
42 -152 14 -30 -55 11 -86 177 -134 192 -55 522 -75 653 -41 84 23 174 66 231
110 l44 35 5 -608 c4 -495 8 -611 19 -624 20 -25 331 -25 355 -1 14 14 16 89
16 672 l0 657 39 16 c21 9 51 33 67 54 l29 38 3 271 c2 149 0 281 -3 293 -8
33 -65 94 -102 110 l-33 13 0 484 0 484 93 4 c77 3 103 9 152 33 76 37 143
104 181 180 l29 60 3 595 c2 432 0 610 -9 650 -33 157 -143 267 -285 285 -42
6 -52 4 -68 -14 -19 -20 -19 -22 2 -93 40 -137 42 -178 42 -745 l0 -554 -25
-24 c-24 -25 -73 -33 -110 -19 -44 17 -45 34 -45 591 0 564 -2 589 -51 684
-26 52 -93 119 -142 142 -20 10 -62 23 -92 30 -49 10 -56 9 -75 -8 -25 -22
-24 -30 11 -150 23 -79 23 -88 27 -645 2 -310 1 -574 -3 -587 -14 -59 -97 -84
-146 -44 l-24 19 -5 564 c-6 629 -4 608 -79 718 -76 112 -277 184 -296 107 -3
-12 7 -67 22 -122 l27 -100 6 -640 5 -640 27 -57 c34 -74 113 -152 186 -186
46 -21 76 -27 155 -30 l97 -4 0 -484 0 -484 -99 0 c-113 0 -137 -7 -182 -50
-21 -19 -42 -30 -61 -30 -16 0 -58 -7 -94 -16 -61 -16 -68 -16 -100 0 -19 9
-59 19 -89 22 l-54 7 -25 106 c-28 117 -59 294 -76 441 -20 173 -62 301 -125
385 -13 17 -26 46 -30 65 -14 68 -53 117 -163 205 -127 102 -264 195 -383 259
-80 43 -87 49 -92 83 -8 44 -4 50 31 58 78 17 144 115 144 214 0 61 -14 98
-56 148 l-26 30 21 19 c69 62 119 184 119 287 -1 266 -170 497 -419 571 -67
20 -216 20 -288 1z m229 -96 c81 -17 153 -55 218 -116 103 -95 151 -206 151
-352 0 -103 -28 -169 -99 -232 l-47 -41 -5 63 c-9 102 -36 137 -142 188 -44
21 -67 42 -111 105 -20 29 -44 33 -71 13 -16 -12 -18 -27 -17 -95 1 -44 -2
-83 -7 -86 -19 -11 -104 27 -148 67 -33 30 -51 57 -64 97 -12 36 -27 60 -44
70 -23 13 -27 13 -53 -6 -15 -12 -39 -43 -53 -70 -23 -46 -25 -58 -25 -196 0
-146 0 -147 -23 -153 -66 -16 -172 155 -172 280 0 22 7 67 15 98 42 161 140
256 296 287 30 7 79 25 110 41 85 44 194 58 291 38z m1464 -84 c18 -14 45 -51
61 -82 l28 -58 5 -565 c5 -528 6 -567 24 -603 31 -62 107 -107 181 -107 56 0
135 49 162 99 l23 44 0 581 c-1 436 -4 598 -14 649 -7 37 -11 67 -8 67 18 0
72 -56 97 -101 l30 -54 5 -570 5 -570 27 -46 c31 -53 59 -74 123 -91 84 -23
176 18 218 95 l22 42 0 580 c0 490 -3 590 -16 648 -10 41 -12 67 -6 67 23 0
96 -91 113 -141 18 -50 19 -94 19 -639 l0 -585 -28 -57 c-30 -61 -64 -95 -131
-131 -40 -21 -49 -22 -396 -22 l-355 0 -50 27 c-59 31 -94 67 -126 128 l-24
45 -5 645 c-3 355 -8 652 -12 660 -11 26 -19 70 -12 70 4 0 22 -11 40 -25z
m-1835 -460 c47 -51 134 -98 214 -116 72 -16 97 -5 120 55 l17 45 60 -30 c36
-18 62 -39 68 -53 5 -15 3 -78 -5 -167 -8 -79 -15 -156 -15 -170 l0 -27 -62
21 c-81 27 -296 29 -370 5 -44 -15 -48 -15 -48 0 0 10 -7 112 -15 227 -16 232
-17 255 -10 255 2 0 23 -20 46 -45z m-128 -412 c3 -58 4 -110 1 -115 -12 -19
-58 -6 -90 26 -29 29 -34 41 -34 81 0 40 5 52 34 81 20 20 44 34 58 34 25 0
25 -2 31 -107z m751 97 c32 -12 66 -65 66 -103 0 -31 -21 -77 -44 -96 -9 -7
-32 -17 -52 -21 l-36 -8 6 101 c10 145 10 146 60 127z m-224 -242 c97 -48 140
-148 106 -252 -22 -70 -50 -112 -88 -136 -56 -34 -80 -26 -207 63 -83 59 -98
57 -141 -19 -17 -29 -35 -54 -39 -54 -13 0 -78 74 -95 108 -46 90 -38 197 19
252 56 54 120 71 265 68 113 -3 130 -6 180 -30z m-566 -321 c9 -24 17 -120 25
-318 6 -156 14 -333 18 -392 l6 -109 -34 21 c-45 28 -75 27 -95 -4 -15 -23
-15 -27 0 -49 8 -13 42 -39 75 -57 l59 -33 6 -55 c3 -31 8 -88 11 -126 l7 -70
-76 -43 c-89 -51 -105 -72 -81 -108 21 -32 57 -31 116 5 l47 30 6 -37 c3 -20
8 -67 12 -104 l6 -68 -55 0 c-59 0 -87 -16 -87 -49 0 -37 23 -50 90 -53 l65
-3 16 -92 16 -93 -36 0 c-20 -1 -94 -5 -166 -10 -111 -7 -132 -6 -147 7 -33
29 -49 85 -64 216 -28 257 -112 613 -240 1017 -69 217 -69 220 42 314 41 36
115 93 165 128 85 61 256 166 271 167 4 1 14 -14 22 -32z m829 12 c115 -59
364 -236 443 -314 58 -58 58 -84 0 -269 -133 -422 -224 -811 -245 -1043 -9
-101 -33 -175 -63 -200 -11 -10 -52 -10 -178 -3 -90 6 -164 11 -166 13 -1 1 5
44 14 95 l15 92 56 0 c63 0 81 11 81 50 0 38 -18 50 -73 50 l-49 0 7 87 c11
128 11 128 66 93 66 -41 101 -43 120 -9 18 35 -3 63 -86 110 l-76 44 6 95 c9
146 7 140 81 180 74 39 91 61 76 95 -16 34 -45 39 -91 15 -22 -11 -42 -20 -43
-20 -2 0 0 55 4 123 3 67 12 252 18 411 10 256 18 326 36 326 3 0 24 -10 47
-21z m-467 -134 c81 -62 176 -81 251 -50 l36 15 -8 -122 c-8 -136 -4 -128
-107 -255 -60 -74 -134 -143 -152 -143 -17 0 -167 159 -210 223 -39 58 -39 58
-44 178 l-5 121 50 -28 c30 -17 56 -25 66 -21 10 4 32 29 49 57 17 27 33 50
36 50 3 0 20 -11 38 -25z m2274 -680 l0 -485 -85 0 -85 0 0 485 0 485 85 0 85
0 0 -485z m-2327 46 c30 -22 64 -41 77 -41 27 0 141 90 200 158 l40 47 -6
-145 c-6 -157 -3 -148 -74 -193 -45 -29 -52 -69 -17 -92 18 -11 31 -13 49 -6
25 9 25 9 20 -42 -2 -29 -6 -53 -7 -55 -2 -3 -416 235 -426 245 -4 4 -11 71
-15 148 l-7 139 56 -61 c31 -33 81 -79 110 -102z m-768 -356 c58 -231 95 -428
95 -500 0 -69 18 -146 48 -205 l28 -55 -23 -40 c-21 -38 -23 -51 -23 -235 l0
-195 -50 -122 c-27 -67 -57 -147 -65 -178 l-17 -55 -61 5 c-34 3 -115 10 -181
15 -86 7 -130 15 -163 31 -77 37 -133 139 -118 218 9 48 25 77 81 141 67 78
82 121 109 298 45 303 197 1051 242 1197 8 26 27 -35 98 -320z m728 40 c1 -10
-81 -60 -87 -54 -2 2 -7 31 -11 63 l-7 59 52 -29 c29 -17 53 -34 53 -39z m222
-120 l94 -56 -4 -42 c-17 -137 -25 -212 -25 -219 0 -5 -76 -8 -170 -8 l-169 0
-5 33 c-3 17 -10 77 -16 131 -10 91 -9 101 7 110 82 49 179 104 186 105 4 1
50 -24 102 -54z m1785 -366 l0 -171 -56 4 c-80 7 -84 15 -84 170 0 154 8 168
90 168 l50 0 0 -171z m463 160 c43 -19 47 -46 47 -293 0 -221 -1 -235 -21
-260 l-20 -26 -160 0 c-146 0 -161 2 -179 20 -14 14 -20 33 -20 65 l0 45 130
0 c124 0 130 1 144 23 20 29 10 66 -21 78 -13 5 -76 9 -139 9 l-114 0 0 60 0
60 130 0 c127 0 130 0 146 25 15 23 15 27 0 50 -16 25 -19 25 -146 25 l-130 0
0 65 0 65 165 0 c99 0 174 -4 188 -11z m-2203 -246 c-1 -16 -6 -57 -13 -93
l-12 -65 -126 -3 -126 -3 -15 91 c-8 49 -12 92 -10 95 3 3 72 5 154 5 l148 0
0 -27z m342 -282 c124 -10 138 -20 138 -103 l0 -58 -625 0 -625 0 0 53 c0 63
19 94 63 102 117 22 793 26 1049 6z m1758 -781 l0 -620 -85 0 -85 0 0 620 0
620 85 0 85 0 0 -620z m-2010 455 l0 -65 -430 0 -430 0 0 65 0 65 430 0 430 0
0 -65z m239 -467 c34 -293 65 -551 68 -572 l6 -39 -61 6 c-75 6 -124 34 -147
84 -16 33 -17 65 -11 347 3 171 9 400 12 509 l7 197 31 0 32 0 63 -532z m191
493 c55 -110 140 -351 205 -586 49 -178 115 -462 115 -494 0 -20 -4 -21 -165
-21 -163 0 -165 0 -170 22 -2 13 -32 257 -65 543 -33 286 -63 532 -66 548 l-6
27 66 0 66 0 20 -39z m-1648 -567 c96 -6 98 -7 92 -30 -3 -13 -11 -47 -18 -76
-10 -44 -15 -52 -31 -50 -118 18 -145 12 -145 -34 0 -29 25 -54 55 -54 34 0
74 -39 77 -75 2 -16 -1 -72 -5 -122 l-9 -93 -111 0 c-101 0 -115 2 -140 23
-48 38 -48 70 -6 308 21 118 39 216 39 218 0 2 24 1 53 -2 28 -4 96 -9 149
-13z"/>
<path d="M1742 4158 c-7 -7 -12 -24 -12 -38 0 -33 17 -50 50 -50 33 0 50 17
50 50 0 33 -17 50 -50 50 -14 0 -31 -5 -38 -12z"/>
<path d="M1962 4158 c-7 -7 -12 -24 -12 -38 0 -33 17 -50 50 -50 33 0 50 17
50 50 0 33 -17 50 -50 50 -14 0 -31 -5 -38 -12z"/>
</g>
</svg>
