<?xml version="1.0" standalone="no"?>
<!DOCTYPE svg PUBLIC "-//W3C//DTD SVG 20010904//EN"
 "http://www.w3.org/TR/2001/REC-SVG-20010904/DTD/svg10.dtd">
<svg version="1.0" xmlns="http://www.w3.org/2000/svg"
 width="512.000000pt" height="512.000000pt" viewBox="0 0 512.000000 512.000000"
 preserveAspectRatio="xMidYMid meet">

<g transform="translate(0.000000,512.000000) scale(0.100000,-0.100000)"
fill="#000000" stroke="none">
<path d="M2385 5024 c-230 -41 -428 -145 -596 -313 -131 -131 -215 -266 -278
-446 -18 -49 -33 -91 -35 -93 -2 -1 -18 19 -35 46 -100 157 -363 309 -451 262
-31 -17 -44 -77 -44 -200 1 -129 23 -230 74 -335 30 -61 27 -74 -12 -75 -32 0
-142 -50 -190 -85 -41 -30 -48 -40 -48 -69 0 -40 24 -72 89 -120 50 -37 88
-45 109 -24 24 24 13 56 -34 94 l-46 38 22 18 c28 22 142 58 184 58 24 -1 47
-15 104 -69 l72 -68 -54 -51 c-29 -28 -91 -75 -137 -105 -46 -30 -105 -75
-131 -100 -123 -119 -207 -320 -237 -560 -5 -43 -12 -81 -14 -84 -3 -3 -21 6
-39 20 -50 39 -159 87 -196 87 -18 0 -40 -8 -51 -19 -37 -37 -40 -204 -6 -315
19 -64 19 -66 -8 -66 -69 0 -262 -75 -306 -119 -14 -14 -21 -34 -21 -58 0 -34
8 -46 83 -118 90 -87 195 -155 239 -155 21 0 32 7 40 26 16 35 5 50 -74 98
-36 21 -92 62 -124 91 l-59 52 51 26 c120 61 293 77 424 40 l65 -19 -2 -58
c-3 -92 -35 -172 -103 -256 -72 -91 -101 -160 -107 -260 -12 -178 51 -307 201
-414 81 -58 142 -125 172 -190 l24 -53 -25 -60 c-13 -34 -32 -100 -41 -147
-16 -80 -16 -90 0 -153 39 -159 188 -282 411 -339 83 -21 286 -24 382 -5 l61
12 86 -56 c144 -94 318 -163 511 -202 136 -27 434 -25 571 5 192 42 367 113
508 207 l67 46 62 -12 c96 -19 299 -16 382 5 224 58 372 180 411 339 16 63 16
73 0 153 -9 47 -28 113 -41 147 l-25 60 24 53 c30 65 91 132 172 190 72 52
125 108 153 162 59 115 67 289 18 396 l-26 56 27 6 c152 33 291 113 405 232
48 51 57 66 57 96 0 23 -7 43 -21 57 -28 28 -150 85 -229 106 -83 22 -262 22
-340 0 -30 -8 -56 -14 -58 -13 -1 2 1 36 4 77 7 71 9 76 56 125 40 42 148 114
172 114 8 0 6 -75 -4 -135 -6 -38 -5 -55 6 -72 19 -30 59 -30 78 0 20 29 31
147 21 222 -8 67 -31 95 -77 95 -37 0 -146 -48 -196 -87 -18 -14 -36 -23 -39
-20 -2 3 -9 41 -14 84 -36 291 -151 518 -321 631 -21 14 -35 28 -31 32 4 4 31
15 58 25 63 22 176 96 210 137 20 23 25 40 23 67 -3 32 -10 41 -68 78 -102 68
-165 68 -158 0 2 -25 12 -35 52 -56 26 -15 49 -31 49 -36 0 -18 -93 -77 -161
-101 -97 -34 -140 -32 -180 9 l-32 33 60 53 c173 152 262 347 263 581 1 123
-12 184 -43 200 -88 47 -351 -105 -451 -261 -17 -27 -32 -49 -34 -49 -2 0 -15
37 -30 83 -100 300 -305 532 -600 680 -192 95 -420 128 -630 91z m399 -114
c175 -44 347 -148 491 -294 142 -144 222 -289 266 -483 11 -46 28 -121 38
-167 22 -96 79 -225 139 -313 62 -91 152 -177 260 -247 55 -35 119 -87 146
-117 134 -152 212 -452 186 -717 -14 -142 -12 -327 4 -404 19 -88 55 -161 112
-228 87 -102 112 -204 79 -325 -24 -91 -63 -146 -137 -196 -35 -24 -86 -66
-113 -95 l-50 -52 -24 87 c-30 109 -66 187 -96 207 -17 11 -45 15 -96 13 l-73
-2 -36 54 c-21 30 -57 91 -80 137 -24 46 -57 94 -72 107 -40 34 -99 48 -145
36 -57 -16 -79 -35 -122 -110 -47 -81 -145 -174 -216 -207 -65 -31 -81 -30
-115 5 -31 30 -48 82 -74 221 -21 115 -79 229 -216 426 -191 272 -237 307
-470 349 -80 14 -160 31 -179 37 -49 15 -111 75 -137 133 -40 84 -37 88 69
123 407 135 840 76 1196 -162 305 -204 523 -524 586 -862 23 -126 28 -136 67
-132 47 5 54 24 41 115 -44 302 -242 646 -496 861 -83 71 -227 167 -286 192
-18 7 -30 18 -28 24 7 22 133 97 197 117 82 26 211 29 256 6 103 -53 161 -196
183 -455 5 -62 15 -119 21 -127 17 -21 54 -19 75 4 16 18 16 30 6 138 -21 211
-55 332 -120 427 -59 85 -128 123 -243 132 -141 11 -298 -43 -426 -147 l-63
-51 -77 22 -77 22 92 93 c81 82 97 104 147 206 53 110 88 221 101 324 14 109
10 103 61 92 40 -10 47 -8 66 11 18 18 20 26 13 48 -9 22 -23 30 -94 51 -258
74 -487 211 -597 357 -63 82 -92 148 -107 241 -9 62 -17 81 -34 93 -20 13 -26
13 -46 0 -17 -12 -25 -31 -34 -93 -15 -94 -44 -159 -108 -243 -107 -142 -342
-282 -595 -355 -91 -27 -107 -39 -96 -80 8 -32 40 -42 89 -29 40 11 38 14 52
-93 13 -103 48 -213 101 -323 48 -99 66 -125 144 -205 50 -51 90 -92 90 -93 0
0 -33 -11 -74 -24 l-74 -23 -63 52 c-130 104 -286 158 -427 147 -223 -18 -325
-176 -363 -559 -10 -108 -10 -120 6 -138 21 -23 58 -25 75 -4 6 8 16 65 21
127 22 259 80 402 183 455 45 23 174 20 256 -6 63 -20 190 -95 197 -117 2 -6
-16 -19 -39 -30 -24 -10 -81 -44 -128 -75 -337 -222 -578 -588 -646 -981 -18
-107 -14 -135 23 -144 39 -10 57 7 66 62 21 120 68 287 105 372 43 100 140
262 157 262 22 0 137 -84 175 -128 22 -26 49 -72 61 -102 26 -69 35 -196 19
-280 -23 -120 -24 -204 -4 -245 40 -85 135 -146 284 -183 91 -23 110 -32 144
-72 53 -63 57 -156 11 -258 -19 -40 -34 -58 -70 -80 -119 -70 -202 -130 -222
-161 -64 -96 10 -226 174 -303 57 -27 91 -50 113 -78 67 -84 173 -123 346
-124 l120 -1 130 -64 c148 -73 148 -70 -23 -92 -182 -23 -431 5 -605 67 -104
37 -235 104 -321 163 -77 54 -267 226 -267 242 0 6 24 43 54 83 85 115 84 112
88 296 l3 165 -103 164 c-57 91 -111 170 -120 177 -9 8 -35 14 -58 14 -32 0
-49 -7 -81 -35 -37 -31 -42 -33 -54 -18 -36 42 -166 60 -214 29 -30 -20 -66
-98 -96 -207 l-23 -85 -51 51 c-27 28 -78 70 -113 94 -74 50 -113 105 -137
196 -33 121 -8 223 79 325 57 67 93 140 112 228 16 77 18 263 4 407 -26 262
54 567 186 714 26 29 92 81 145 116 206 134 347 332 401 563 56 240 69 287
106 365 152 325 439 542 788 597 84 13 258 3 348 -20z m-1650 -560 c128 -65
219 -160 279 -290 28 -60 29 -68 18 -110 -17 -65 -89 -210 -105 -210 -19 0
-131 115 -171 176 -74 111 -105 219 -105 367 0 71 3 97 13 97 6 0 39 -14 71
-30z m2936 -63 c0 -184 -68 -352 -192 -477 -38 -39 -75 -70 -83 -70 -16 0 -88
142 -106 210 -11 42 -10 50 18 110 39 85 109 175 171 222 52 40 158 98 180 98
9 0 12 -25 12 -93z m-1481 -83 c73 -138 298 -312 523 -405 l77 -31 -5 -47
c-34 -285 -138 -493 -309 -616 l-70 -50 -247 1 -246 0 -69 50 c-170 125 -274
331 -307 615 l-5 47 77 31 c225 93 450 267 523 405 13 25 26 46 29 46 3 0 16
-21 29 -46z m-652 -1421 c20 -61 56 -126 88 -161 56 -63 122 -89 299 -122 85
-16 172 -37 193 -47 59 -27 120 -95 237 -263 137 -196 190 -303 211 -428 21
-125 49 -196 96 -243 64 -64 150 -65 259 -1 78 46 178 142 215 208 40 70 55
84 86 84 35 0 51 -16 89 -93 18 -34 41 -77 52 -94 l20 -33 -44 0 c-24 0 -51
-6 -60 -14 -9 -7 -63 -86 -120 -177 l-103 -164 3 -165 c4 -184 3 -181 88 -296
30 -40 54 -77 54 -82 0 -17 -185 -186 -261 -239 -74 -51 -222 -129 -289 -153
-34 -12 -40 -10 -180 60 -221 111 -252 121 -375 119 -147 -1 -212 21 -287 100
-43 44 -70 63 -119 81 -70 27 -159 104 -159 139 0 26 66 81 150 125 122 65
188 167 197 311 6 92 -21 167 -83 229 -47 47 -80 62 -213 97 -87 23 -155 64
-179 109 -13 26 -11 87 7 185 13 69 13 204 0 267 -26 122 -114 243 -230 315
-33 20 -59 39 -59 43 0 9 156 159 206 198 49 37 185 122 196 122 5 0 11 -8 15
-17z m-1386 -74 c77 -41 159 -127 159 -167 0 -16 3 -51 7 -77 6 -45 5 -48 -13
-41 -14 6 -102 24 -171 36 -1 0 -12 30 -23 67 -21 70 -39 213 -25 213 4 0 34
-14 66 -31z m4233 -376 c33 -8 82 -26 109 -39 l49 -25 -23 -26 c-92 -98 -249
-180 -384 -201 -55 -9 -55 -9 -74 22 -29 49 -52 129 -54 192 l-2 58 45 13
c113 34 216 36 334 6z m-3444 -944 c-72 -75 -250 -306 -250 -324 0 -7 8 -23
18 -35 32 -39 59 -21 151 101 85 113 187 229 200 229 4 0 14 -11 21 -25 13
-24 10 -28 -53 -92 -62 -64 -177 -206 -199 -246 -15 -28 16 -69 50 -65 20 2
43 24 92 88 36 47 91 112 122 145 62 65 78 65 78 -3 0 -27 -11 -42 -66 -95
-88 -82 -154 -169 -154 -201 0 -30 32 -51 63 -41 12 3 49 40 82 83 56 72 60
75 63 49 3 -21 -15 -52 -78 -140 -45 -61 -96 -124 -113 -139 -29 -27 -30 -28
-17 -72 7 -25 17 -46 23 -46 5 0 25 11 43 25 l32 24 66 -63 c36 -35 66 -67 66
-70 0 -3 -56 -6 -123 -6 -193 0 -334 44 -436 136 -97 87 -115 177 -67 329 50
156 152 301 324 458 93 85 108 95 115 79 7 -15 -4 -32 -53 -83z m2521 -14
c152 -138 257 -290 304 -438 48 -151 29 -246 -66 -331 -102 -92 -243 -136
-436 -136 -67 0 -123 2 -123 4 0 2 30 33 67 69 l67 65 31 -24 c18 -13 37 -24
42 -24 6 0 16 21 23 46 13 44 12 45 -17 72 -17 15 -68 78 -113 139 -63 88 -81
119 -78 140 3 26 7 23 63 -49 33 -43 70 -80 82 -83 31 -10 63 11 63 41 0 32
-66 119 -154 201 -55 53 -66 68 -66 95 0 68 16 68 78 3 31 -33 86 -98 122
-145 73 -94 105 -110 134 -68 9 12 16 26 16 29 0 17 -129 180 -198 251 -72 75
-75 79 -62 103 7 14 17 25 21 25 13 0 115 -116 200 -229 92 -122 119 -140 151
-101 10 12 18 28 18 35 0 18 -178 249 -250 324 -46 48 -59 68 -54 83 7 23 -6
32 135 -97z m-2693 83 c3 -15 -127 -170 -136 -162 -5 3 26 109 44 152 12 30
17 33 51 30 26 -2 39 -8 41 -20z m2888 -43 c12 -33 25 -75 29 -94 7 -33 6 -32
-56 34 -74 78 -83 91 -75 111 4 11 17 14 43 12 37 -3 39 -5 59 -63z"/>
<path d="M2090 3640 c-25 -25 -25 -31 0 -63 48 -61 202 -79 328 -38 86 28 106
53 78 96 -20 30 -26 31 -99 5 -74 -26 -168 -26 -226 0 -53 25 -56 25 -81 0z"/>
<path d="M2625 3640 c-52 -57 58 -122 210 -123 93 -1 167 23 197 64 16 21 18
31 9 47 -17 31 -43 35 -92 12 -58 -26 -152 -26 -226 0 -71 25 -76 25 -98 0z"/>
<path d="M3106 1330 c-63 -20 -88 -61 -106 -176 -20 -124 -58 -158 -212 -190
-85 -18 -98 -24 -133 -66 -36 -42 -31 -96 14 -161 66 -97 135 -114 321 -77
171 33 267 94 327 207 41 77 56 151 52 255 -4 77 -7 91 -34 129 -17 24 -45 51
-62 62 -37 21 -125 31 -167 17z m117 -107 c34 -9 50 -60 45 -147 -5 -96 -32
-163 -86 -219 -52 -54 -93 -73 -212 -96 -144 -29 -155 -28 -201 18 -60 59 -56
63 76 95 109 26 172 61 206 114 25 39 35 74 65 219 6 31 37 35 107 16z"/>
</g>
</svg>
